#!OML:ASF H:\Pregnant\Project 1\Capture day 1\Session 1\femalepreg.ASF
:FULLY-SPECIFIED
:DEGREES
799
root 22.3801 15.6985 -12.6051 -160.682 181.804 -178.892
lowerback -13.9792 -0.136384 -8.95943
upperback -5.4665 1.06229 -2.22517
thorax 1.90507 0.607877 2.86779
lowerneck -19.5725 -0.167935 2.15947
upperneck 29.5505 -2.45314 4.39061
head 13.2624 -0.211939 0.933038
rclavicle 3.59303e-014 -6.99722e-014
rhumerus -35.7394 5.38825 -84.9768
rradius 25.5261
rwrist -3.30207
rhand -12.0537 -15.1846
rfingers 7.12502
rthumb 14.0052 -44.6928
lclavicle 3.59303e-014 -6.99722e-014
lhumerus -32.1486 -9.38359 79.0228
lradius 29.6841
lwrist 45.2099
lhand -22.5459 -6.54984
lfingers 7.12502
lthumb 3.88164 23.3946
rfemur -25.9295 7.6587 20.6015
rtibia 60.1929
rfoot 3.57257 13.8021
rtoes -13.361
lfemur -39.2563 -6.8729 -24.1769
ltibia 27.9509
lfoot -6.45965 -1.87734
ltoes -13.9738
800
root 22.3955 15.7014 -12.519 -160.779 182.227 -178.573
lowerback -13.8336 -0.159294 -9.44584
upperback -5.3771 1.09149 -2.4806
thorax 1.90881 0.621759 2.87239
lowerneck -19.5858 -0.112267 2.20165
upperneck 29.414 -2.41728 4.50151
head 13.21 -0.179794 0.973156
rclavicle -6.70898e-015 1.51076e-014
rhumerus -35.5171 5.5883 -85.096
rradius 25.8345
rwrist -3.31103
rhand -12.4056 -15.185
rfingers 7.12502
rthumb 13.6661 -44.7164
lclavicle -6.70898e-015 1.51076e-014
lhumerus -31.6731 -9.85376 78.9933
lradius 29.9713
lwrist 45.2235
lhand -22.801 -6.15775
lfingers 7.12502
lthumb 3.63523 23.791
rfemur -27.4272 7.2915 20.1271
rtibia 61.986
rfoot 2.19809 12.8193
rtoes -14.8973
lfemur -38.5298 -6.62719 -24.746
ltibia 27.5811
lfoot -6.69126 -1.78063
ltoes -14.0323
801
root 22.4098 15.702 -12.434 -160.872 182.601 -178.29
lowerback -13.6976 -0.184023 -9.87584
upperback -5.28193 1.11142 -2.72793
thorax 1.92617 0.629563 2.85229
lowerneck -19.5731 -0.0624738 2.23816
upperneck 29.2515 -2.38669 4.61758
head 13.1417 -0.15095 1.01471
rclavicle 5.96354e-016 1.59028e-014
rhumerus -35.2931 5.7425 -85.2116
rradius 26.1921
rwrist -3.29286
rhand -12.7247 -15.1446
rfingers 7.12502
rthumb 13.3586 -44.6963
lclavicle 5.96354e-016 1.59028e-014
lhumerus -31.1809 -10.3138 78.9447
lradius 30.2499
lwrist 45.1782
lhand -23.0833 -5.89155
lfingers 7.12502
lthumb 3.36262 24.0617
rfemur -28.939 6.93082 19.7305
rtibia 63.6584
rfoot 0.896546 11.6005
rtoes -16.3654
lfemur -37.8803 -6.40368 -25.258
ltibia 27.306
lfoot -6.94921 -1.68129
ltoes -14.0516
802
root 22.4242 15.7015 -12.3493 -160.978 182.907 -178.103
lowerback -13.4113 -0.214731 -10.1749
upperback -5.26742 1.07782 -2.93514
thorax 1.78597 0.619195 2.79084
lowerneck -19.5431 -0.0101605 2.2207
upperneck 29.1586 -2.34279 4.75241
head 13.0992 -0.118427 1.07598
rclavicle -1.01877e-014 2.8625e-014
rhumerus -35.1754 5.91905 -85.3368
rradius 26.5784
rwrist -3.2533
rhand -13.0225 -15.0801
rfingers 7.12502
rthumb 13.0715 -44.6505
lclavicle -1.01877e-014 2.8625e-014
lhumerus -30.8318 -10.6965 78.8885
lradius 30.5346
lwrist 45.0708
lhand -23.3115 -5.81307
lfingers 7.12502
lthumb 3.14232 24.1435
rfemur -30.3934 6.56896 19.4753
rtibia 65.1561
rfoot -0.235608 10.2636
rtoes -17.4219
lfemur -37.3008 -6.20927 -25.6519
ltibia 27.1654
lfoot -7.2582 -1.56564
ltoes -14.0159
803
root 22.4398 15.7 -12.2647 -161.1 183.149 -178.044
lowerback -13.1539 -0.227425 -10.3045
upperback -5.21555 1.05101 -3.1075
thorax 1.7048 0.607192 2.67434
lowerneck -19.4924 0.0305982 2.19406
upperneck 29.0225 -2.3063 4.87981
head 13.0345 -0.0925861 1.13363
rclavicle -7.55382e-015 -1.43125e-014
rhumerus -35.0087 6.02194 -85.4249
rradius 26.9831
rwrist -3.19788
rhand -13.305 -14.962
rfingers 7.12502
rthumb 12.7991 -44.5497
lclavicle -7.55382e-015 -1.43125e-014
lhumerus -30.4247 -11.0394 78.8256
lradius 30.8043
lwrist 44.9205
lhand -23.4756 -5.84042
lfingers 7.12502
lthumb 2.98383 24.1185
rfemur -31.7651 6.22573 19.3895
rtibia 66.4477
rfoot -1.20436 8.90067
rtoes -17.96
lfemur -36.7879 -6.02976 -25.8988
ltibia 27.1703
lfoot -7.62569 -1.43353
ltoes -13.9345
804
root 22.4556 15.6986 -12.1818 -161.18 183.304 -178.095
lowerback -12.834 -0.2578 -10.2987
upperback -5.22903 0.968057 -3.22892
thorax 1.52963 0.572565 2.52809
lowerneck -19.4065 0.0815477 2.16089
upperneck 28.9222 -2.24473 4.98155
head 12.976 -0.0596981 1.18685
rclavicle -7.90169e-015 1.90833e-014
rhumerus -34.9099 6.13244 -85.5064
rradius 27.407
rwrist -3.14091
rhand -13.5755 -14.8146
rfingers 7.12502
rthumb 12.5384 -44.4184
lclavicle -7.90169e-015 1.90833e-014
lhumerus -30.1039 -11.2796 78.7623
lradius 31.0625
lwrist 44.7257
lhand -23.5771 -5.96092
lfingers 7.12502
lthumb 2.88579 23.9993
rfemur -33.1184 5.88332 19.4579
rtibia 67.5316
rfoot -1.97189 7.61881
rtoes -17.7277
lfemur -36.4056 -5.86703 -26.0111
ltibia 27.3073
lfoot -8.03466 -1.32639
ltoes -13.8283
805
root 22.4724 15.6977 -12.0968 -161.282 183.428 -178.233
lowerback -12.5034 -0.28195 -10.1889
upperback -5.23981 0.878687 -3.31097
thorax 1.35397 0.533672 2.36581
lowerneck -19.3447 0.137929 2.14302
upperneck 28.8561 -2.16906 5.03805
head 12.9354 -0.0239033 1.22278
rclavicle -1.14301e-014 2.8625e-014
rhumerus -34.8247 6.232 -85.5647
rradius 27.8507
rwrist -3.1136
rhand -13.8012 -14.6336
rfingers 7.12502
rthumb 12.3207 -44.2506
lclavicle -1.14301e-014 2.8625e-014
lhumerus -29.8016 -11.4274 78.705
lradius 31.301
lwrist 44.5011
lhand -23.626 -6.17402
lfingers 7.12502
lthumb 2.83858 23.7868
rfemur -34.3666 5.57926 19.6345
rtibia 68.4083
rfoot -2.70641 6.41651
rtoes -17.1911
lfemur -36.0341 -5.7247 -26.0233
ltibia 27.533
lfoot -8.48577 -1.1855
ltoes -13.7357
806
root 22.489 15.6966 -12.0104 -161.371 183.533 -178.396
lowerback -12.1916 -0.313746 -10.0593
upperback -5.26082 0.77853 -3.36317
thorax 1.17806 0.489485 2.22366
lowerneck -19.3083 0.209334 2.15359
upperneck 28.8304 -2.06762 5.04109
head 12.915 0.0204787 1.23817
rclavicle 4.37326e-015 -3.33958e-014
rhumerus -34.7437 6.31179 -85.59
rradius 28.2894
rwrist -3.1146
rhand -13.9701 -14.4882
rfingers 7.12502
rthumb 12.158 -44.1149
lclavicle 4.37326e-015 -3.33958e-014
lhumerus -29.5104 -11.4782 78.6608
lradius 31.5098
lwrist 44.2616
lhand -23.6142 -6.45882
lfingers 7.12502
lthumb 2.8499 23.5019
rfemur -35.58 5.30827 19.8468
rtibia 69.1132
rfoot -3.43257 5.28791
rtoes -16.5537
lfemur -35.6911 -5.59704 -25.9999
ltibia 27.7954
lfoot -8.94893 -1.0386
ltoes -13.6691
807
root 22.505 15.6951 -11.9218 -161.46 183.655 -178.533
lowerback -11.9961 -0.337827 -9.97067
upperback -5.22778 0.714022 -3.41369
thorax 1.11706 0.456994 2.1124
lowerneck -19.2895 0.27206 2.18194
upperneck 28.7821 -1.97527 5.01617
head 12.8885 0.0588382 1.23779
rclavicle 9.54166e-015 -2.8625e-014
rhumerus -34.6125 6.36188 -85.583
rradius 28.7612
rwrist -3.20538
rhand -14.1253 -14.3783
rfingers 7.12502
rthumb 12.0083 -44.0138
lclavicle 9.54166e-015 -2.8625e-014
lhumerus -29.146 -11.4963 78.6307
lradius 31.6952
lwrist 44.028
lhand -23.5693 -6.79797
lfingers 7.12502
lthumb 2.89334 23.1621
rfemur -36.7648 5.08784 20.0254
rtibia 69.6764
rfoot -4.15385 4.21769
rtoes -16.0059
lfemur -35.3321 -5.46637 -26.0067
ltibia 28.0427
lfoot -9.41128 -0.888716
ltoes -13.6128
